<?xml version="1.0" encoding="utf-8"?><svg viewBox="0 0 72 8" xmlns="http://www.w3.org/2000/svg" width="32" height="3.56"><path d="M71.354 4.354a.5.5 0 0 0 0-.708L68.172.464a.5.5 0 1 0-.707.708L70.293 4l-2.829 2.828a.5.5 0 1 0 .708.708l3.182-3.182ZM0 4v.5h4.438v-1H0V4Zm13.313 0v.5h8.874v-1h-8.875V4Zm17.75 0v.5h8.875v-1h-8.876V4Zm17.75 0v.5h8.874v-1h-8.874V4Zm17.75 0v.5H71v-1h-4.438V4Zm4.79.354a.5.5 0 0 0 0-.708L68.173.464a.5.5 0 1 0-.707.708L70.293 4l-2.829 2.828a.5.5 0 1 0 .708.708l3.182-3.182ZM0 4v.5h4.438v-1H0V4Zm13.313 0v.5h8.874v-1h-8.875V4Zm17.75 0v.5h8.875v-1h-8.876V4Zm17.75 0v.5h8.874v-1h-8.874V4Zm17.75 0v.5H71v-1h-4.438V4Z"/></svg>