<?xml version="1.0" encoding="utf-8"?><svg viewBox="0 0 67 68" xmlns="http://www.w3.org/2000/svg" width="31.53" height="32"><g clip-path="url(#ea)"><path d="M31.376 50.87c-9.236-1.134-15.827-9.57-14.693-18.806 1.134-9.236 9.57-15.827 18.806-14.693 9.236 1.134 15.827 9.57 14.693 18.806-1.134 9.235-9.57 15.827-18.806 14.693Zm3.656-29.777c-7.183-.882-13.745 4.245-14.627 11.428-.882 7.183 4.245 13.745 11.428 14.627 7.183.881 13.745-4.245 14.627-11.428.882-7.183-4.245-13.745-11.428-14.627ZM35.946 13.649a1.875 1.875 0 0 1-1.633-2.09L35 5.976a1.875 1.875 0 0 1 3.722.457l-.685 5.584a1.875 1.875 0 0 1-2.09 1.632ZM29.776 63.897a1.875 1.875 0 0 1-1.632-2.09l.685-5.583a1.875 1.875 0 1 1 3.722.457l-.685 5.583a1.875 1.875 0 0 1-2.09 1.633ZM61.12 39.409l-5.584-.686a1.875 1.875 0 1 1 .457-3.722l5.583.686a1.875 1.875 0 0 1-.457 3.722ZM10.872 33.24l-5.583-.686a1.875 1.875 0 0 1 .457-3.722l5.583.685a1.875 1.875 0 0 1-.457 3.722ZM50.934 22.129c-1.643-.202-2.246-2.307-.925-3.339l4.432-3.463a1.875 1.875 0 1 1 2.309 2.955l-4.433 3.463a1.869 1.869 0 0 1-1.383.384ZM11.041 53.297c-1.643-.202-2.246-2.307-.926-3.339l4.433-3.463a1.875 1.875 0 0 1 2.309 2.955l-4.433 3.463a1.87 1.87 0 0 1-1.383.384ZM50.52 58.144a1.87 1.87 0 0 1-1.25-.706l-3.463-4.433a1.875 1.875 0 1 1 2.956-2.309l3.463 4.433c1.03 1.32-.063 3.217-1.706 3.015ZM19.351 18.251a1.869 1.869 0 0 1-1.248-.707l-3.464-4.432a1.875 1.875 0 1 1 2.955-2.309l3.463 4.433c1.032 1.32-.063 3.217-1.706 3.015Z"/></g><defs><clipPath id="ea"><path fill="#fff" transform="rotate(7 -1.967 60.12)" d="M0 0h60v60H0z"/></clipPath></defs></svg>