<?xml version="1.0" encoding="utf-8"?><svg viewBox="0 0 56 58" xmlns="http://www.w3.org/2000/svg" width="30.9" height="32"><path d="m49.324 42.707-4.248-.522 3.794-30.904c.114-.923-.556-1.764-1.494-1.879l-8.497-1.043.205-1.67c.114-.923-.555-1.765-1.494-1.88l-1.7-.208c-.938-.116-1.79.539-1.904 1.461l-.205 1.67-5.947-.73.205-1.67c.113-.923-.556-1.764-1.494-1.879l-1.7-.209c-.938-.115-1.79.54-1.904 1.462l-.205 1.67-7.647-.938c-.939-.116-1.791.539-1.904 1.461l-1.174 9.56-4.208-4.864A1.842 1.842 0 0 0 5.4 11.37a1.71 1.71 0 0 0-.365 2.356l6.23 8.805L9.39 37.804l-4.248-.522c-.939-.115-1.792.54-1.905 1.462l-.205 1.67c-.113.923.556 1.764 1.494 1.88l4.736.58-3.423 6.631a1.66 1.66 0 0 0 .017 1.555c.264.485.75.815 1.305.883l3.29.404a1.716 1.716 0 0 0 1.731-.903l3.985-7.721 7.902.97-.718 5.847c-.114.922.555 1.764 1.494 1.879l1.7.209c.938.115 1.79-.54 1.903-1.462l.718-5.847 7.902.97 1.999 8.456c.164.69.747 1.206 1.461 1.295l3.29.404a1.72 1.72 0 0 0 1.48-.541c.372-.408.518-.97.392-1.505l-1.717-7.261 4.735.581c.939.115 1.791-.539 1.905-1.462l.205-1.67c.113-.923-.556-1.764-1.494-1.88Zm-26.209-3.218c-.689-.319-5.003-2.48-4.51-6.489.068-.596.089-1.197.061-1.796.367.113.743.195 1.124.246.434.054.873.063 1.31.028a4.148 4.148 0 0 0 1.87-.48.834.834 0 0 0-.11-1.477 3.014 3.014 0 0 1-.634-.355 5.055 5.055 0 0 1-1.626-2.211l.001-.008a13.546 13.546 0 0 1 2.602 1.845c.427.397.824.824 1.187 1.277 2.326 2.925 6.033 4.784 11.628 5.848.1.057.212.095.327.11a.814.814 0 0 0 .174-.014c1.136.204 2.272.364 3.368.498.941.116 1.854.212 2.716.305.478.051.936.1 1.386.151l-.615 5.01-20.259-2.488ZM15.96 24.655a1.728 1.728 0 0 1 1.261-.342c.451.055.862.284 1.142.637.23.383.354.817.363 1.26.016.13.032.26.051.384.042.319.118.632.226.936a6.69 6.69 0 0 0 1.426 2.283 5.095 5.095 0 0 1-1.862-.428 7.77 7.77 0 0 1-2.894-2.367 1.67 1.67 0 0 1-.355-1.242 1.67 1.67 0 0 1 .642-1.121ZM44.195 35.3c-.458-.051-.926-.102-1.414-.154-1.663-.178-3.519-.383-5.382-.692l.828-6.743a5.997 5.997 0 0 0 4.602-2.277 65.011 65.011 0 0 1 2.584-.06l-1.218 9.927Zm-5.76-9.276.357-2.911 1.625-1.248a.832.832 0 0 0 .134-1.172.867.867 0 0 0-1.19-.157l-1.231.945-.967-1.215a.867.867 0 0 0-1.192-.136.832.832 0 0 0-.154 1.17l1.275 1.604-.357 2.912c-2.084-.692-3.304-2.82-2.823-4.927.48-2.106 2.507-3.505 4.688-3.237 2.18.267 3.808 2.115 3.765 4.275-.042 2.16-1.741 3.93-3.93 4.097Zm-4.208.288a6.008 6.008 0 0 0 2.3 1.19l-.814 6.634c-4.807-.996-8.006-2.62-9.976-5.1-.14-.173-.291-.341-.44-.51a51.402 51.402 0 0 1 8.93-2.215v.001Zm1.458-20.041 1.7.209-.206 1.67-1.7-.209.206-1.67ZM24.64 4.915l1.7.208-.206 1.67-1.699-.208.205-1.67Zm-9.756 2.193 32.286 3.964-1.549 12.619a57.363 57.363 0 0 0-1.85.027c.881-2.578-.151-5.421-2.496-6.878-2.346-1.456-5.394-1.146-7.373.75a5.812 5.812 0 0 0-.954 7.229 50.6 50.6 0 0 0-8.99 2.404 16.05 16.05 0 0 0-3.768-2.367 2.846 2.846 0 0 0-.482-.938 3.434 3.434 0 0 0-2.344-1.273l-3.843-4.44 1.363-11.097Zm-9.145 6.135.77-.553 8.919 10.312c-.186.091-.362.2-.526.324-.042.032-.073.076-.112.106a.825.825 0 0 0-.25.236c-.076.076-.15.158-.218.243l-1.494-2.113-6.387-9.034-.702.479Zm6.996 11.366.876 1.24a3.31 3.31 0 0 0 .71 2.206 10.227 10.227 0 0 0 2.573 2.351c.093.793.097 1.593.011 2.385a7.116 7.116 0 0 0 2.525 6.245l-8.34-1.024 1.645-13.403Zm-2.08 26.068-3.29-.404 3.704-7.176 3.29.404-3.704 7.176Zm16.094.28-1.699-.209.718-5.846 1.7.208-.719 5.847Zm17.273 3.817-3.289-.404-1.857-7.859 3.29.404 1.856 7.859Zm-1.056-9.456L4.73 40.623l.205-1.67 44.182 5.424-.205 1.67-5.947-.73Z"/></svg>