<?xml version="1.0" encoding="utf-8"?><svg viewBox="0 0 68 67" xmlns="http://www.w3.org/2000/svg" width="32" height="31.53"><g clip-path="url(#fa)"><path d="m58.354 48.974-5.86-32.025a6.261 6.261 0 0 0-6.91-5.078l-27.863 3.421a6.258 6.258 0 0 0-5.476 6.6l2.062 32.49a6.19 6.19 0 0 0 2.247 4.414 6.195 6.195 0 0 0 4.753 1.394l31.657-3.887a6.204 6.204 0 0 0 4.277-2.503 6.192 6.192 0 0 0 1.113-4.826Zm-3.13 3.346a3.71 3.71 0 0 1-2.564 1.501l-31.658 3.887a3.727 3.727 0 0 1-2.853-.833 3.728 3.728 0 0 1-1.348-2.65L14.74 21.732a3.756 3.756 0 0 1 3.287-3.96l27.86-3.42a3.752 3.752 0 0 1 4.145 3.044l5.86 32.025a3.72 3.72 0 0 1-.668 2.898Z"/><path d="M47.993 20.182a3.753 3.753 0 0 0-4.15-3.06l-23.165 2.844a3.753 3.753 0 0 0-3.286 3.973l1.025 15.196c.397 3.238 10.561 2.481 16.586 1.742 6.025-.74 16.07-2.465 15.661-5.77l-2.671-14.925ZM34.698 38.395c-7.898.97-12.642.568-13.822.09l-.99-14.711a1.254 1.254 0 0 1 1.097-1.326l23.165-2.845a1.25 1.25 0 0 1 1.383 1.02l2.6 14.516c-1.023.748-5.53 2.286-13.433 3.256ZM22.9 44.881a5.005 5.005 0 0 0-4.353 5.572 5.005 5.005 0 0 0 5.572 4.354 5.005 5.005 0 0 0 4.354-5.572A5.005 5.005 0 0 0 22.9 44.88Zm.915 7.444a2.504 2.504 0 0 1-2.787-2.176 2.504 2.504 0 0 1 2.177-2.786 2.504 2.504 0 0 1 2.786 2.176 2.504 2.504 0 0 1-2.177 2.786ZM47.714 41.834a5.005 5.005 0 0 0-4.353 5.573 5.005 5.005 0 0 0 5.572 4.353 5.005 5.005 0 0 0 4.353-5.572 5.005 5.005 0 0 0-5.572-4.354Zm.914 7.445a2.504 2.504 0 0 1-2.786-2.177 2.504 2.504 0 0 1 2.177-2.786 2.504 2.504 0 0 1 2.786 2.177 2.504 2.504 0 0 1-2.177 2.786ZM39.334 45.382l-7.444.914a1.25 1.25 0 0 0 .305 2.482l7.444-.914a1.25 1.25 0 0 0-.305-2.482ZM41.184 50.193 31.26 51.41a1.25 1.25 0 0 0 .304 2.482l9.926-1.219a1.25 1.25 0 0 0-.305-2.481ZM25.665 57.136a1.25 1.25 0 0 0-1.089 1.393l.305 2.481a1.25 1.25 0 0 1-2.482.305l-.304-2.481a1.25 1.25 0 0 0-2.482.304l.305 2.482a3.754 3.754 0 0 0 4.18 3.265 3.754 3.754 0 0 0 3.264-4.18l-.304-2.48a1.25 1.25 0 0 0-1.393-1.09ZM52.96 53.784a1.25 1.25 0 0 0-1.089 1.393l.305 2.482a1.25 1.25 0 0 1-2.482.304l-.304-2.48a1.25 1.25 0 0 0-2.482.304l.305 2.481a3.755 3.755 0 0 0 4.18 3.265 3.755 3.755 0 0 0 3.264-4.179l-.305-2.481a1.25 1.25 0 0 0-1.392-1.089ZM45.438 4.836c-.433-.45-3.197-2.63-15.005-1.18-11.809 1.45-13.963 4.233-14.275 4.775-.344.6-.163 1.403.436 1.748.255.145.536.198.8.166.357-.044.684-.248.884-.592.017-.022 1.919-2.321 12.46-3.616 10.414-1.278 12.883.433 12.898.432a1.251 1.251 0 0 0 1.802-1.733Z"/><path d="M34.808 4.479a1.25 1.25 0 0 0-1.547.852l-1.844 6.34-3.32-5.703a1.247 1.247 0 0 0-1.708-.453 1.249 1.249 0 0 0-.453 1.708l4.789 8.228a1.25 1.25 0 0 0 2.28-.282l2.655-9.142a1.249 1.249 0 0 0-.852-1.548ZM52.416 18.588a1.25 1.25 0 0 0 .305 2.482 2.504 2.504 0 0 1 2.786 2.176l.457 3.722a1.25 1.25 0 0 1-1.088 1.393l-1.241.153a1.25 1.25 0 0 0 .305 2.481l1.24-.152a3.754 3.754 0 0 0 3.266-4.18l-.457-3.721a5.005 5.005 0 0 0-5.573-4.354ZM13.933 33.389l-1.24.152a1.25 1.25 0 0 1-1.394-1.088l-.457-3.723a2.504 2.504 0 0 1 2.177-2.786 1.25 1.25 0 0 0-.305-2.481 5.005 5.005 0 0 0-4.353 5.572l.457 3.722a3.754 3.754 0 0 0 4.179 3.265l1.24-.152a1.25 1.25 0 0 0-.304-2.481Z"/></g><defs><clipPath id="fa"><path transform="rotate(-7 60.104 -1.709)" d="M0 0h60v60H0z"/></clipPath></defs></svg>