<?xml version="1.0" encoding="utf-8"?><svg viewBox="0 0 39 64" xmlns="http://www.w3.org/2000/svg" width="19.5" height="32"><path d="m34.04 30.035-2.847.35a41.536 41.536 0 0 0 1.849-12.092l.017-3.861a1.172 1.172 0 0 0-2.068-.76l-.345.409a32.573 32.573 0 0 0-3.72 5.45c.419-5.029 1.123-10.146 2.169-13.433l.004-.014a1.172 1.172 0 0 0-1.917-1.21 32.248 32.248 0 0 0-5.446 6.673 26.747 26.747 0 0 1 1.255-8.234 1.172 1.172 0 0 0-1.765-1.333l-2.019 1.342a12.094 12.094 0 0 0-5.39 9.078 18.022 18.022 0 0 0-6.334-3.7L4.168 7.59a1.172 1.172 0 0 0-1.323 1.796l.256.355a51.924 51.924 0 0 1 6.356 11.736 15.344 15.344 0 0 0-2.725-1.223l-2.78-.933a1.172 1.172 0 0 0-1.322 1.797l.214.297A43.35 43.35 0 0 1 8.839 33.13l-3.645.448c-.643.079-1.1.663-1.02 1.306l2.363 19.25c.665 5.42 5.616 9.287 11.035 8.621l11.515-1.413c5.42-.666 9.287-5.616 8.622-11.036l-2.364-19.25a1.172 1.172 0 0 0-1.306-1.02ZM30.7 17.862l-.002.421a39.21 39.21 0 0 1-2.07 12.416l-3.012.37A29.856 29.856 0 0 1 30.7 17.862Zm-4.912-8.027c-1.163 6.24-1.523 13.9-1.616 16.526v.02a32.54 32.54 0 0 0-.95 4.982l-3.703.455c-.916-7.896 1.392-15.827 6.27-21.983Zm-9.595 4.818a9.766 9.766 0 0 1 3.772-8.994 29.115 29.115 0 0 0-.362 9.26l.04.323c.009.073.025.143.046.211-.28.638-.542 1.284-.78 1.938-.18.494-.346.993-.5 1.496a18.026 18.026 0 0 0-2.224-3.897 1.17 1.17 0 0 0 .008-.337Zm-9.456-3.73c5.66 1.898 9.796 6.93 10.575 12.842-.4 2.759-.443 5.57-.12 8.339l-.241.03a15.3 15.3 0 0 0-4.1-8.027 54.241 54.241 0 0 0-6.114-13.184ZM6.5 22.659a13.058 13.058 0 0 1 8.121 9.76l-3.41.419A45.673 45.673 0 0 0 6.5 22.659Zm28.883 27.932c.508 4.136-2.445 7.915-6.581 8.423l-11.515 1.414c-4.137.508-7.916-2.444-8.424-6.581L7.285 40.994l15.993-1.963a1.172 1.172 0 0 0-.285-2.327L6.998 38.668l-.357-2.908 17.789-2.184a.56.56 0 0 1 .013-.002l5.19-.637h.007l3.52-.433 2.222 18.087Z"/></svg>