<?xml version="1.0" encoding="utf-8"?><svg width="20" height="20" fill="none" xmlns="http://www.w3.org/2000/svg" viewBox="0 0 20 20"><g clip-path="url(#ja)"><path d="m11.832 9.672 7.788-7.52a1.22 1.22 0 0 0 0-1.769 1.327 1.327 0 0 0-1.832 0L10 7.903 2.212.383a1.327 1.327 0 0 0-1.832 0 1.22 1.22 0 0 0 0 1.77l7.788 7.519-7.788 7.52a1.22 1.22 0 0 0 0 1.769c.253.244.584.366.916.366.332 0 .664-.122.916-.366L10 11.44l7.788 7.52c.252.244.584.366.916.366.331 0 .663-.122.916-.366a1.22 1.22 0 0 0 0-1.77l-7.788-7.519Z" fill="url(#jb)"/></g><defs><linearGradient id="jb" x1="1.048" y1="1.692" x2="18.068" y2="19.893" gradientUnits="userSpaceOnUse"><stop stop-color="#87CE66"/><stop offset="1" stop-color="#63AB41"/></linearGradient><clipPath id="ja"><path fill="#fff" d="M0 0h20v19.311H0z"/></clipPath></defs></svg>