<?xml version="1.0" encoding="utf-8"?><svg viewBox="0 0 37 37" xmlns="http://www.w3.org/2000/svg" width="32" height="32"><path d="M18.52 14.796a3.7 3.7 0 0 0 3.703-3.735 3.711 3.711 0 0 0-3.722-3.72 3.717 3.717 0 0 0-3.731 3.765 3.71 3.71 0 0 0 3.75 3.69Z"/><path d="M35.032 0H1.968C.881 0 0 .88 0 1.968v33.064C0 36.119.881 37 1.968 37h33.064C36.119 37 37 36.12 37 35.032V1.968C37 .881 36.12 0 35.032 0Zm-16.5 3.45c4.21.011 7.592 3.457 7.571 7.716-.022 4.16-3.459 7.533-7.663 7.519-4.163-.014-7.577-3.465-7.553-7.635.025-4.215 3.44-7.612 7.645-7.6Zm8.53 18.227c-.93.957-2.052 1.648-3.297 2.132-1.178.455-2.468.686-3.745.838.193.21.284.313.404.434 1.733 1.742 3.474 3.477 5.202 5.224.588.594.712 1.332.387 2.025-.354.757-1.147 1.255-1.926 1.201-.493-.035-.877-.28-1.218-.623-1.308-1.316-2.641-2.608-3.922-3.948-.373-.39-.552-.318-.882.022a261.33 261.33 0 0 1-3.998 4.015c-.604.596-1.322.703-2.024.363-.745-.361-1.218-1.121-1.181-1.886.025-.516.28-.91.634-1.265 1.715-1.713 3.425-3.43 5.137-5.145.113-.114.219-.235.384-.412-2.334-.243-4.438-.817-6.239-2.227-.223-.175-.454-.344-.659-.54-.788-.757-.867-1.624-.243-2.518.533-.764 1.43-.97 2.36-.53.181.084.353.19.517.305 3.357 2.306 7.969 2.37 11.339.104.333-.254.69-.465 1.104-.57.805-.207 1.554.088 1.986.792.495.802.488 1.586-.12 2.21Z"/></svg>