<?xml version="1.0" encoding="utf-8"?><svg width="32" height="26.81" fill="none" xmlns="http://www.w3.org/2000/svg" viewBox="0 0 1417 1187"><path d="m230.531 1026.41-20.569-23.75a211.326 211.326 0 0 1-31.026-47.451c-30.532-64.101-29.268-140.923 11.962-198.726 25.45-35.678 53.208-66.388 98.77-105.848 96.047-83.184 227.537-113.332 349.185-76.641C960.554 671.024 1318.21 854.276 1360 695.5 1462 308 580.643 158.606 437.5 153" stroke="url(#ka)" stroke-width="3" stroke-dasharray="10 10"/><path d="M250.5 1017.91c13.228 0 24 10.94 24 24.5s-10.772 24.5-24 24.5-24-10.94-24-24.5 10.772-24.5 24-24.5Z" stroke="#87CE66" stroke-width="3"/><path d="M255.377 992.649c3.293.326 6.491.977 9.562 1.921l-.293.956a47.94 47.94 0 0 1 8.806 3.706l.476-.877a49.12 49.12 0 0 1 8.068 5.485h.001l-.641.76a49.687 49.687 0 0 1 6.709 6.81l.776-.62a49.9 49.9 0 0 1 5.368 8.14l-.881.46a48.975 48.975 0 0 1 3.614 8.85l.957-.28a49.952 49.952 0 0 1 1.867 9.57l-.995.1a50.005 50.005 0 0 1 0 9.56l.995.1a50.255 50.255 0 0 1-1.867 9.57l-.957-.28a48.585 48.585 0 0 1-3.614 8.84l.881.47a49.9 49.9 0 0 1-5.368 8.14l-.776-.62a49.055 49.055 0 0 1-6.709 6.8l.64.77a49.597 49.597 0 0 1-8.068 5.48l-.476-.87a47.712 47.712 0 0 1-8.806 3.7l.293.96a49.522 49.522 0 0 1-9.562 1.92l-.098-1c-1.572.16-3.166.24-4.779.24s-3.207-.08-4.779-.24l-.099 1a49.522 49.522 0 0 1-9.562-1.92l.294-.96a47.712 47.712 0 0 1-8.806-3.7l-.477.87a49.597 49.597 0 0 1-8.068-5.48l.641-.77a49.055 49.055 0 0 1-6.709-6.8l-.777.62a49.9 49.9 0 0 1-5.368-8.14l.882-.47a48.585 48.585 0 0 1-3.614-8.84l-.958.28a50.255 50.255 0 0 1-1.867-9.57l.996-.1a50.005 50.005 0 0 1 0-9.56l-.996-.1c.316-3.3.948-6.5 1.867-9.57l.958.28a48.975 48.975 0 0 1 3.614-8.85l-.882-.46a49.9 49.9 0 0 1 5.368-8.14l.777.62a49.687 49.687 0 0 1 6.709-6.81l-.641-.76a49.12 49.12 0 0 1 8.068-5.485l.477.877a47.94 47.94 0 0 1 8.806-3.706l-.294-.956a48.928 48.928 0 0 1 9.562-1.921l.099.995a48.381 48.381 0 0 1 4.779-.235c1.613 0 3.207.079 4.779.235l.098-.995Z" stroke="#87CE66" stroke-opacity=".7" stroke-width="2" stroke-dasharray="10 10"/><circle cx="250.5" cy="1042.91" r="75.5" stroke="#87CE66" stroke-opacity=".3" stroke-width="2" stroke-dasharray="10 10"/><defs><linearGradient id="ka" x1="351.71" y1="1101.97" x2="659.489" y2="-165.14" gradientUnits="userSpaceOnUse"><stop stop-color="#87CE66"/><stop offset="1" stop-color="#63AB41"/></linearGradient></defs></svg>