<?xml version="1.0" encoding="utf-8"?><svg viewBox="0 0 40 35" xmlns="http://www.w3.org/2000/svg" width="32" height="28"><path d="M40 4.787a16.773 16.773 0 0 1-4.725 1.328 8.325 8.325 0 0 0 3.608-4.646 16.148 16.148 0 0 1-5.2 2.035c-1.505-1.643-3.65-2.66-5.99-2.66-4.54 0-8.196 3.777-8.196 8.407 0 .667.055 1.307.19 1.917-6.817-.34-12.85-3.69-16.902-8.792a8.624 8.624 0 0 0-1.123 4.249c0 2.91 1.463 5.491 3.643 6.985-1.317-.025-2.61-.418-3.705-1.035v.092c0 4.085 2.842 7.478 6.57 8.26a7.999 7.999 0 0 1-2.15.276c-.525 0-1.055-.03-1.552-.144 1.062 3.329 4.077 5.776 7.662 5.856A16.223 16.223 0 0 1 1.962 30.5 15 15 0 0 1 0 30.384a22.68 22.68 0 0 0 12.58 3.772c15.09 0 23.34-12.812 23.34-23.918 0-.372-.013-.73-.03-1.087C37.517 7.968 38.885 6.49 40 4.787Z"/></svg>