<?xml version="1.0" encoding="utf-8"?><svg viewBox="0 0 49 29" xmlns="http://www.w3.org/2000/svg" width="32" height="18.94"><path d="M40.66 16.599c-.792-1-.566-1.446 0-2.34.01-.01 6.55-9.047 7.223-12.111l.004-.002c.335-1.117 0-1.938-1.619-1.938h-5.357c-1.364 0-1.993.705-2.33 1.493 0 0-2.727 6.529-6.586 10.761-1.245 1.223-1.821 1.615-2.501 1.615-.335 0-.855-.392-.855-1.508V2.146c0-1.34-.382-1.938-1.511-1.938h-8.424c-.856 0-1.364.625-1.364 1.207 0 1.27 1.93 1.562 2.13 5.135v7.752c0 1.698-.309 2.01-.993 2.01-1.821 0-6.241-6.555-8.86-14.058C9.086.798 8.57.21 7.196.21h-5.36C.308.21 0 .915 0 1.703c0 1.392 1.821 8.316 8.469 17.462 4.43 6.244 10.67 9.627 16.345 9.627 3.412 0 3.828-.752 3.828-2.044 0-5.966-.308-6.53 1.401-6.53.792 0 2.156.393 5.341 3.404 3.64 3.571 4.239 5.17 6.276 5.17h5.358c1.527 0 2.3-.752 1.855-2.234-1.018-3.118-7.903-9.53-8.213-9.96Z"/></svg>