<svg viewBox="0 0 72 8" xmlns="http://www.w3.org/2000/svg">
<path d="M71.3536 4.35356C71.5488 4.1583 71.5488 3.84172 71.3536 3.64645L68.1716 0.464472C67.9763 0.26921 67.6597 0.26921 67.4645 0.464472C67.2692 0.659734 67.2692 0.976317 67.4645 1.17158L70.2929 4.00001L67.4645 6.82843C67.2692 7.0237 67.2692 7.34028 67.4645 7.53554C67.6597 7.7308 67.9763 7.7308 68.1716 7.53554L71.3536 4.35356ZM0 4L-4.37114e-08 4.5L4.4375 4.5L4.4375 4L4.4375 3.5L4.37114e-08 3.5L0 4ZM13.3125 4L13.3125 4.5L22.1875 4.5L22.1875 4L22.1875 3.5L13.3125 3.5L13.3125 4ZM31.0625 4L31.0625 4.5L39.9375 4.5L39.9375 4L39.9375 3.5L31.0625 3.5L31.0625 4ZM48.8125 4L48.8125 4.5L57.6875 4.50001L57.6875 4.00001L57.6875 3.50001L48.8125 3.5L48.8125 4ZM66.5625 4.00001L66.5625 4.50001L71 4.50001L71 4.00001L71 3.50001L66.5625 3.50001L66.5625 4.00001ZM71.3536 4.35356C71.5488 4.1583 71.5488 3.84172 71.3536 3.64645L68.1716 0.464472C67.9763 0.26921 67.6597 0.26921 67.4645 0.464472C67.2692 0.659734 67.2692 0.976317 67.4645 1.17158L70.2929 4.00001L67.4645 6.82843C67.2692 7.0237 67.2692 7.34028 67.4645 7.53554C67.6597 7.7308 67.9763 7.7308 68.1716 7.53554L71.3536 4.35356ZM0 4L-4.37114e-08 4.5L4.4375 4.5L4.4375 4L4.4375 3.5L4.37114e-08 3.5L0 4ZM13.3125 4L13.3125 4.5L22.1875 4.5L22.1875 4L22.1875 3.5L13.3125 3.5L13.3125 4ZM31.0625 4L31.0625 4.5L39.9375 4.5L39.9375 4L39.9375 3.5L31.0625 3.5L31.0625 4ZM48.8125 4L48.8125 4.5L57.6875 4.50001L57.6875 4.00001L57.6875 3.50001L48.8125 3.5L48.8125 4ZM66.5625 4.00001L66.5625 4.50001L71 4.50001L71 4.00001L71 3.50001L66.5625 3.50001L66.5625 4.00001Z"/>
</svg>
