<svg style="max-height: 500px" class="burger__img" aria-label="Menu button image" viewBox="17.10889534883721 29.828335000000003 65.48372093023256 40.3988" fill="none" xmlns="http://www.w3.org/2000/svg" width="65.48372093023256" height="40.3988">
    <path fill="none" stroke="#337AB7" class="burger__top" d="m 30,33 h 40 c 13.100415,0 14.380204,31.80258 6.899646,33.421777 -24.612039,5.327373 9.016154,-52.337577 -12.75751,-30.563913 l -28.284272,28.284272"/>
    <path fill="none" stroke="#337AB7" class="burger__middle" d="m 70,50 c 0,0 -32.213436,0 -40,0 -7.786564,0 -6.428571,-4.640244 -6.428571,-8.571429 0,-5.895471 6.073743,-11.783399 12.286435,-5.570707 6.212692,6.212692 28.284272,28.284272 28.284272,28.284272"/>
    <path fill="none" stroke="#337AB7" class="burger__bottom" d="m 69.575405,67.073826 h -40 c -13.100415,0 -14.380204,-31.80258 -6.899646,-33.421777 24.612039,-5.327373 -9.016154,52.337577 12.75751,30.563913 l 28.284272,-28.284272"/>
</svg>