<svg xmlns="http://www.w3.org/2000/svg" fill="none" viewBox="15.875 27.92 68.4 44.2" aria-label="Menu button image" class="burger__img" style="max-height: 500px" width="68.4" height="44.2">
    <path d="m 30,33 h 40 c 13.100415,0 14.380204,31.80258 6.899646,33.421777 -24.612039,5.327373 9.016154,-52.337577 -12.75751,-30.563913 l -28.284272,28.284272" class="burger__top" stroke="#337AB7" fill="none"/>
    <path d="m 70,50 c 0,0 -32.213436,0 -40,0 -7.786564,0 -6.428571,-4.640244 -6.428571,-8.571429 0,-5.895471 6.073743,-11.783399 12.286435,-5.570707 6.212692,6.212692 28.284272,28.284272 28.284272,28.284272" class="burger__middle" stroke="#337AB7" fill="none"/>
    <path d="m 69.575405,67.073826 h -40 c -13.100415,0 -14.380204,-31.80258 -6.899646,-33.421777 24.612039,-5.327373 -9.016154,52.337577 12.75751,30.563913 l 28.284272,-28.284272" class="burger__bottom" stroke="#337AB7" fill="none"/>
</svg>