<svg width="1417" height="1187" viewBox="0 0 1417 1187" fill="none" xmlns="http://www.w3.org/2000/svg">
<path d="M230.531 1026.41L209.962 1002.66C197.535 988.307 187.099 972.347 178.936 955.209V955.209C148.404 891.108 149.668 814.286 190.898 756.483C216.348 720.805 244.106 690.095 289.668 650.635C385.715 567.451 517.205 537.303 638.853 573.994C960.554 671.024 1318.21 854.276 1360 695.5C1462 308 580.643 158.606 437.5 153" stroke="url(#paint0_linear_746_2)" stroke-width="3" stroke-dasharray="10 10"/>
<path d="M250.5 1017.91C263.728 1017.91 274.5 1028.85 274.5 1042.41C274.5 1055.97 263.728 1066.91 250.5 1066.91C237.272 1066.91 226.5 1055.97 226.5 1042.41C226.5 1028.85 237.272 1017.91 250.5 1017.91Z" stroke="#87CE66" stroke-width="3"/>
<path d="M255.377 992.649C258.67 992.975 261.868 993.626 264.939 994.57L264.646 995.526C267.722 996.472 270.669 997.719 273.452 999.232L273.928 998.355C276.799 999.917 279.5 1001.75 281.996 1003.84H281.997L281.356 1004.6C283.806 1006.65 286.054 1008.93 288.065 1011.41L288.841 1010.79C290.881 1013.31 292.681 1016.03 294.209 1018.93L293.328 1019.39C294.805 1022.19 296.02 1025.15 296.942 1028.24L297.899 1027.96C298.818 1031.03 299.45 1034.23 299.766 1037.53L298.771 1037.63C298.922 1039.2 299 1040.8 299 1042.41C299 1044.02 298.922 1045.62 298.771 1047.19L299.766 1047.29C299.45 1050.58 298.818 1053.78 297.899 1056.86L296.942 1056.58C296.02 1059.67 294.805 1062.63 293.328 1065.42L294.209 1065.89C292.681 1068.79 290.881 1071.51 288.841 1074.03L288.065 1073.41C286.054 1075.89 283.806 1078.17 281.356 1080.21L281.996 1080.98C279.5 1083.06 276.799 1084.9 273.928 1086.46L273.452 1085.59C270.669 1087.1 267.722 1088.35 264.646 1089.29L264.939 1090.25C261.868 1091.19 258.67 1091.84 255.377 1092.17L255.279 1091.17C253.707 1091.33 252.113 1091.41 250.5 1091.41C248.887 1091.41 247.293 1091.33 245.721 1091.17L245.622 1092.17C242.329 1091.84 239.131 1091.19 236.06 1090.25L236.354 1089.29C233.278 1088.35 230.331 1087.1 227.548 1085.59L227.071 1086.46C224.2 1084.9 221.499 1083.06 219.003 1080.98L219.644 1080.21C217.194 1078.17 214.946 1075.89 212.935 1073.41L212.158 1074.03C210.118 1071.51 208.318 1068.79 206.79 1065.89L207.672 1065.42C206.195 1062.63 204.98 1059.67 204.058 1056.58L203.1 1056.86C202.181 1053.78 201.549 1050.58 201.233 1047.29L202.229 1047.19C202.078 1045.62 202 1044.02 202 1042.41C202 1040.8 202.078 1039.2 202.229 1037.63L201.233 1037.53C201.549 1034.23 202.181 1031.03 203.1 1027.96L204.058 1028.24C204.98 1025.15 206.195 1022.19 207.672 1019.39L206.79 1018.93C208.318 1016.03 210.118 1013.31 212.158 1010.79L212.935 1011.41C214.946 1008.93 217.194 1006.65 219.644 1004.6L219.003 1003.84C221.499 1001.75 224.2 999.917 227.071 998.355L227.548 999.232C230.331 997.719 233.278 996.472 236.354 995.526L236.06 994.57C239.131 993.626 242.329 992.975 245.622 992.649L245.721 993.644C247.293 993.488 248.887 993.409 250.5 993.409C252.113 993.409 253.707 993.488 255.279 993.644L255.377 992.649Z" stroke="#87CE66" stroke-opacity="0.7" stroke-width="2" stroke-dasharray="10 10"/>
<circle cx="250.5" cy="1042.91" r="75.5" stroke="#87CE66" stroke-opacity="0.3" stroke-width="2" stroke-dasharray="10 10"/>
<defs>
<linearGradient id="paint0_linear_746_2" x1="351.71" y1="1101.97" x2="659.489" y2="-165.14" gradientUnits="userSpaceOnUse">
<stop stop-color="#87CE66"/>
<stop offset="1" stop-color="#63AB41"/>
</linearGradient>
</defs>
</svg>
