<svg width="153" height="154" viewBox="0 0 153 154" fill="none" xmlns="http://www.w3.org/2000/svg">
<path d="M76.4999 51.9087C89.7274 51.9087 100.5 62.8501 100.5 76.4087C100.5 89.9673 89.7274 100.909 76.4999 100.909C63.2724 100.909 52.4999 89.9673 52.4999 76.4087C52.4999 62.8501 63.2724 51.9087 76.4999 51.9087Z" stroke="#87CE66" stroke-width="3"/>
<path d="M81.3769 26.6489C84.6697 26.9742 87.8678 27.6251 90.9394 28.5698L90.6464 29.5259C93.7221 30.4719 96.6687 31.7184 99.4521 33.2319L99.9277 32.355C102.799 33.9161 105.5 35.7539 107.996 37.8354H107.997L107.356 38.603C109.806 40.6462 112.054 42.9277 114.065 45.4126L114.841 44.7847C116.881 47.3056 118.681 50.0317 120.209 52.9272L119.328 53.3931C120.805 56.1919 122.02 59.1525 122.942 62.2417L123.899 61.9556C124.818 65.0324 125.45 68.2342 125.766 71.5298L124.771 71.6255C124.922 73.199 125 74.7946 125 76.4087C125 78.0228 124.922 79.6184 124.771 81.1919L125.766 81.2866C125.45 84.5822 124.818 87.7839 123.899 90.8608L122.942 90.5757C122.02 93.6649 120.805 96.6255 119.328 99.4243L120.209 99.8892C118.681 102.785 116.881 105.511 114.841 108.032L114.065 107.405C112.054 109.89 109.806 112.171 107.356 114.214L107.996 114.981C105.5 117.063 102.799 118.9 99.9277 120.461L99.4521 119.585C96.6687 121.099 93.7221 122.345 90.6464 123.292L90.9394 124.247C87.8678 125.191 84.6698 125.842 81.3769 126.167L81.2792 125.174C79.7072 125.33 78.1129 125.409 76.4999 125.409C74.887 125.409 73.2926 125.33 71.7206 125.174L71.622 126.167C68.3292 125.842 65.1311 125.191 62.0595 124.247L62.3535 123.292C59.2778 122.345 56.3312 121.099 53.5478 119.585L53.0712 120.461C50.2001 118.9 47.4985 117.063 45.0029 114.981L45.6435 114.214C43.1939 112.171 40.9457 109.89 38.9345 107.405L38.1581 108.032C36.1179 105.511 34.3177 102.785 32.79 99.8892L33.6718 99.4243C32.1951 96.6255 30.9795 93.6649 30.0576 90.5757L29.0995 90.8608C28.1814 87.784 27.5492 84.5821 27.2333 81.2866L28.2285 81.1919C28.0776 79.6184 27.9999 78.0228 27.9999 76.4087C27.9999 74.7946 28.0776 73.199 28.2285 71.6255L27.2333 71.5298C27.5493 68.2343 28.1813 65.0324 29.0995 61.9556L30.0576 62.2417C30.9795 59.1525 32.1951 56.1919 33.6718 53.3931L32.79 52.9272C34.3177 50.0318 36.1179 47.3056 38.1581 44.7847L38.9345 45.4126C40.9457 42.9277 43.1939 40.6462 45.6435 38.603L45.0029 37.8354C47.4984 35.7539 50.2001 33.9162 53.0712 32.355L53.5478 33.2319C56.3312 31.7184 59.2778 30.4719 62.3535 29.5259L62.0595 28.5698C65.131 27.625 68.3292 26.9743 71.622 26.6489L71.7206 27.6431C73.2926 27.4878 74.887 27.4087 76.4999 27.4087C78.1129 27.4087 79.7072 27.4878 81.2792 27.6431L81.3769 26.6489Z" stroke="#87CE66" stroke-opacity="0.7" stroke-width="2" stroke-dasharray="10 10"/>
<circle cx="76.4999" cy="76.9087" r="75.5" stroke="#87CE66" stroke-opacity="0.3" stroke-width="2" stroke-dasharray="10 10"/>
</svg>
