<svg viewBox="0 0 40 35" xmlns="http://www.w3.org/2000/svg">
<path d="M40 4.78744C38.5125 5.45625 36.9275 5.89956 35.275 6.11481C36.975 5.07444 38.2725 3.43956 38.8825 1.469C37.2975 2.43762 35.5475 3.12181 33.6825 3.50363C32.1775 1.86106 30.0325 0.84375 27.6925 0.84375C23.1525 0.84375 19.4975 4.62088 19.4975 9.25131C19.4975 9.91756 19.5525 10.5582 19.6875 11.1681C12.87 10.8272 6.8375 7.47806 2.785 2.37613C2.0775 3.63431 1.6625 5.07444 1.6625 6.62475C1.6625 9.53575 3.125 12.1162 5.305 13.6101C3.9875 13.5845 2.695 13.1924 1.6 12.5749C1.6 12.6005 1.6 12.6338 1.6 12.6671C1.6 16.7517 4.4425 20.1445 8.17 20.9261C7.5025 21.1131 6.775 21.2028 6.02 21.2028C5.495 21.2028 4.965 21.1721 4.4675 21.0593C5.53 24.388 8.545 26.8352 12.13 26.9146C9.34 29.1517 5.7975 30.4996 1.9625 30.4996C1.29 30.4996 0.645 30.4688 0 30.3843C3.6325 32.7853 7.9375 34.1562 12.58 34.1562C27.67 34.1562 35.92 21.3438 35.92 10.2379C35.92 9.86631 35.9075 9.50756 35.89 9.15137C37.5175 7.9675 38.885 6.48894 40 4.78744Z" />
</svg>
