<svg viewBox="0 0 49 29" xmlns="http://www.w3.org/2000/svg">
<path d="M40.6598 16.5988C39.8676 15.5983 40.0942 15.1533 40.6598 14.259C40.67 14.2488 47.2094 5.21238 47.8832 2.14784L47.8873 2.14579C48.2221 1.029 47.8873 0.208252 46.2682 0.208252H40.9109C39.5471 0.208252 38.9182 0.912627 38.5814 1.70071C38.5814 1.70071 35.8537 8.22996 31.995 12.4623C30.7495 13.6853 30.1738 14.0773 29.4939 14.0773C29.1591 14.0773 28.6385 13.6853 28.6385 12.5685V2.14579C28.6385 0.80646 28.2567 0.208252 27.1276 0.208252H18.7037C17.8482 0.208252 17.3399 0.833002 17.3399 1.41488C17.3399 2.68479 19.2692 2.97675 19.4693 6.54967V14.3019C19.4693 16.0005 19.161 16.3129 18.4771 16.3129C16.6559 16.3129 12.2357 9.75713 9.61625 2.254C9.08746 0.798293 8.57092 0.210293 7.19687 0.210293H1.8375C0.308292 0.210293 0 0.914668 0 1.70275C0 3.09517 1.82117 10.0185 8.46883 19.1651C12.8992 25.4085 19.1386 28.7916 24.8144 28.7916C28.226 28.7916 28.6425 28.0403 28.6425 26.7479C28.6425 20.7821 28.3342 20.2186 30.0431 20.2186C30.8353 20.2186 32.1991 20.6106 35.3841 23.6221C39.0244 27.193 39.6226 28.7916 41.6602 28.7916H47.0175C48.5447 28.7916 49.3185 28.0403 48.8734 26.558C47.8546 23.4404 40.9701 17.0275 40.6598 16.5988Z" />
</svg>
