<?xml version="1.0" encoding="utf-8"?><svg width="147" height="132" viewBox="0 0 147 132" xmlns="http://www.w3.org/2000/svg" xmlns:xlink="http://www.w3.org/1999/xlink"><view id="arrow" viewBox="0 0 32 3.56"/><svg viewBox="0 0 72 8" width="32" height="3.56" xmlns="http://www.w3.org/2000/svg"><path d="M71.354 4.354a.5.5 0 0 0 0-.708L68.172.464a.5.5 0 1 0-.707.708L70.293 4l-2.829 2.828a.5.5 0 1 0 .708.708l3.182-3.182ZM0 4v.5h4.438v-1H0V4Zm13.313 0v.5h8.874v-1h-8.875V4Zm17.75 0v.5h8.875v-1h-8.876V4Zm17.75 0v.5h8.874v-1h-8.874V4Zm17.75 0v.5H71v-1h-4.438V4Zm4.79.354a.5.5 0 0 0 0-.708L68.173.464a.5.5 0 1 0-.707.708L70.293 4l-2.829 2.828a.5.5 0 1 0 .708.708l3.182-3.182ZM0 4v.5h4.438v-1H0V4Zm13.313 0v.5h8.874v-1h-8.875V4Zm17.75 0v.5h8.875v-1h-8.876V4Zm17.75 0v.5h8.874v-1h-8.874V4Zm17.75 0v.5H71v-1h-4.438V4Z"/></svg><view id="big_target" viewBox="0 3.56 25.55 32"/><svg width="25.55" height="32" fill="none" viewBox="0 0 372 466" y="3.56" xmlns="http://www.w3.org/2000/svg"><circle cx="233" cy="233" r="77.5" stroke="#87CE66" stroke-width="3"/><circle cx="233" cy="233" r="149" stroke="#87CE66" stroke-opacity=".7" stroke-width="2" stroke-dasharray="10 10"/><circle cx="233" cy="233" r="232" stroke="#87CE66" stroke-opacity=".3" stroke-width="2" stroke-dasharray="10 10"/></svg><view id="facebook" viewBox="32 0 32 32"/><svg viewBox="0 0 37 37" width="32" height="32" x="32" xmlns="http://www.w3.org/2000/svg"><path d="M32.375 0H4.625A4.63 4.63 0 0 0 0 4.625v27.75A4.63 4.63 0 0 0 4.625 37H18.5V24.281h-4.625V18.5H18.5v-4.625a6.937 6.937 0 0 1 6.938-6.938h4.625v5.782H27.75c-1.276 0-2.313-.12-2.313 1.156V18.5h5.782l-2.313 5.781h-3.468V37h6.937A4.63 4.63 0 0 0 37 32.375V4.625A4.63 4.63 0 0 0 32.375 0Z"/></svg><view id="hero_easel" viewBox="64 0 30.9 32"/><svg viewBox="0 0 56 58" width="30.9" height="32" x="64" xmlns="http://www.w3.org/2000/svg"><path d="m49.324 42.707-4.248-.522 3.794-30.904c.114-.923-.556-1.764-1.494-1.879l-8.497-1.043.205-1.67c.114-.923-.555-1.765-1.494-1.88l-1.7-.208c-.938-.116-1.79.539-1.904 1.461l-.205 1.67-5.947-.73.205-1.67c.113-.923-.556-1.764-1.494-1.879l-1.7-.209c-.938-.115-1.79.54-1.904 1.462l-.205 1.67-7.647-.938c-.939-.116-1.791.539-1.904 1.461l-1.174 9.56-4.208-4.864A1.842 1.842 0 0 0 5.4 11.37a1.71 1.71 0 0 0-.365 2.356l6.23 8.805L9.39 37.804l-4.248-.522c-.939-.115-1.792.54-1.905 1.462l-.205 1.67c-.113.923.556 1.764 1.494 1.88l4.736.58-3.423 6.631a1.66 1.66 0 0 0 .017 1.555c.264.485.75.815 1.305.883l3.29.404a1.716 1.716 0 0 0 1.731-.903l3.985-7.721 7.902.97-.718 5.847c-.114.922.555 1.764 1.494 1.879l1.7.209c.938.115 1.79-.54 1.903-1.462l.718-5.847 7.902.97 1.999 8.456c.164.69.747 1.206 1.461 1.295l3.29.404a1.72 1.72 0 0 0 1.48-.541c.372-.408.518-.97.392-1.505l-1.717-7.261 4.735.581c.939.115 1.791-.539 1.905-1.462l.205-1.67c.113-.923-.556-1.764-1.494-1.88Zm-26.209-3.218c-.689-.319-5.003-2.48-4.51-6.489.068-.596.089-1.197.061-1.796.367.113.743.195 1.124.246.434.054.873.063 1.31.028a4.148 4.148 0 0 0 1.87-.48.834.834 0 0 0-.11-1.477 3.014 3.014 0 0 1-.634-.355 5.055 5.055 0 0 1-1.626-2.211l.001-.008a13.546 13.546 0 0 1 2.602 1.845c.427.397.824.824 1.187 1.277 2.326 2.925 6.033 4.784 11.628 5.848.1.057.212.095.327.11a.814.814 0 0 0 .174-.014c1.136.204 2.272.364 3.368.498.941.116 1.854.212 2.716.305.478.051.936.1 1.386.151l-.615 5.01-20.259-2.488ZM15.96 24.655a1.728 1.728 0 0 1 1.261-.342c.451.055.862.284 1.142.637.23.383.354.817.363 1.26.016.13.032.26.051.384.042.319.118.632.226.936a6.69 6.69 0 0 0 1.426 2.283 5.095 5.095 0 0 1-1.862-.428 7.77 7.77 0 0 1-2.894-2.367 1.67 1.67 0 0 1-.355-1.242 1.67 1.67 0 0 1 .642-1.121ZM44.195 35.3c-.458-.051-.926-.102-1.414-.154-1.663-.178-3.519-.383-5.382-.692l.828-6.743a5.997 5.997 0 0 0 4.602-2.277 65.011 65.011 0 0 1 2.584-.06l-1.218 9.927Zm-5.76-9.276.357-2.911 1.625-1.248a.832.832 0 0 0 .134-1.172.867.867 0 0 0-1.19-.157l-1.231.945-.967-1.215a.867.867 0 0 0-1.192-.136.832.832 0 0 0-.154 1.17l1.275 1.604-.357 2.912c-2.084-.692-3.304-2.82-2.823-4.927.48-2.106 2.507-3.505 4.688-3.237 2.18.267 3.808 2.115 3.765 4.275-.042 2.16-1.741 3.93-3.93 4.097Zm-4.208.288a6.008 6.008 0 0 0 2.3 1.19l-.814 6.634c-4.807-.996-8.006-2.62-9.976-5.1-.14-.173-.291-.341-.44-.51a51.402 51.402 0 0 1 8.93-2.215v.001Zm1.458-20.041 1.7.209-.206 1.67-1.7-.209.206-1.67ZM24.64 4.915l1.7.208-.206 1.67-1.699-.208.205-1.67Zm-9.756 2.193 32.286 3.964-1.549 12.619a57.363 57.363 0 0 0-1.85.027c.881-2.578-.151-5.421-2.496-6.878-2.346-1.456-5.394-1.146-7.373.75a5.812 5.812 0 0 0-.954 7.229 50.6 50.6 0 0 0-8.99 2.404 16.05 16.05 0 0 0-3.768-2.367 2.846 2.846 0 0 0-.482-.938 3.434 3.434 0 0 0-2.344-1.273l-3.843-4.44 1.363-11.097Zm-9.145 6.135.77-.553 8.919 10.312c-.186.091-.362.2-.526.324-.042.032-.073.076-.112.106a.825.825 0 0 0-.25.236c-.076.076-.15.158-.218.243l-1.494-2.113-6.387-9.034-.702.479Zm6.996 11.366.876 1.24a3.31 3.31 0 0 0 .71 2.206 10.227 10.227 0 0 0 2.573 2.351c.093.793.097 1.593.011 2.385a7.116 7.116 0 0 0 2.525 6.245l-8.34-1.024 1.645-13.403Zm-2.08 26.068-3.29-.404 3.704-7.176 3.29.404-3.704 7.176Zm16.094.28-1.699-.209.718-5.846 1.7.208-.719 5.847Zm17.273 3.817-3.289-.404-1.857-7.859 3.29.404 1.856 7.859Zm-1.056-9.456L4.73 40.623l.205-1.67 44.182 5.424-.205 1.67-5.947-.73Z"/></svg><view id="hero_sun" viewBox="0 35.56 31.53 32"/><svg viewBox="0 0 67 68" width="31.53" height="32" y="35.56" xmlns="http://www.w3.org/2000/svg"><g clip-path="url(#ea)"><path d="M31.376 50.87c-9.236-1.134-15.827-9.57-14.693-18.806 1.134-9.236 9.57-15.827 18.806-14.693 9.236 1.134 15.827 9.57 14.693 18.806-1.134 9.235-9.57 15.827-18.806 14.693Zm3.656-29.777c-7.183-.882-13.745 4.245-14.627 11.428-.882 7.183 4.245 13.745 11.428 14.627 7.183.881 13.745-4.245 14.627-11.428.882-7.183-4.245-13.745-11.428-14.627ZM35.946 13.649a1.875 1.875 0 0 1-1.633-2.09L35 5.976a1.875 1.875 0 0 1 3.722.457l-.685 5.584a1.875 1.875 0 0 1-2.09 1.632ZM29.776 63.897a1.875 1.875 0 0 1-1.632-2.09l.685-5.583a1.875 1.875 0 1 1 3.722.457l-.685 5.583a1.875 1.875 0 0 1-2.09 1.633ZM61.12 39.409l-5.584-.686a1.875 1.875 0 1 1 .457-3.722l5.583.686a1.875 1.875 0 0 1-.457 3.722ZM10.872 33.24l-5.583-.686a1.875 1.875 0 0 1 .457-3.722l5.583.685a1.875 1.875 0 0 1-.457 3.722ZM50.934 22.129c-1.643-.202-2.246-2.307-.925-3.339l4.432-3.463a1.875 1.875 0 1 1 2.309 2.955l-4.433 3.463a1.869 1.869 0 0 1-1.383.384ZM11.041 53.297c-1.643-.202-2.246-2.307-.926-3.339l4.433-3.463a1.875 1.875 0 0 1 2.309 2.955l-4.433 3.463a1.87 1.87 0 0 1-1.383.384ZM50.52 58.144a1.87 1.87 0 0 1-1.25-.706l-3.463-4.433a1.875 1.875 0 1 1 2.956-2.309l3.463 4.433c1.03 1.32-.063 3.217-1.706 3.015ZM19.351 18.251a1.869 1.869 0 0 1-1.248-.707l-3.464-4.432a1.875 1.875 0 1 1 2.955-2.309l3.463 4.433c1.032 1.32-.063 3.217-1.706 3.015Z"/></g><defs><clipPath id="ea"><path fill="#fff" transform="rotate(7 -1.967 60.12)" d="M0 0h60v60H0z"/></clipPath></defs></svg><view id="hero_tram" viewBox="31.53 35.56 32 31.53"/><svg viewBox="0 0 68 67" width="32" height="31.53" x="31.53" y="35.56" xmlns="http://www.w3.org/2000/svg"><g clip-path="url(#fa)"><path d="m58.354 48.974-5.86-32.025a6.261 6.261 0 0 0-6.91-5.078l-27.863 3.421a6.258 6.258 0 0 0-5.476 6.6l2.062 32.49a6.19 6.19 0 0 0 2.247 4.414 6.195 6.195 0 0 0 4.753 1.394l31.657-3.887a6.204 6.204 0 0 0 4.277-2.503 6.192 6.192 0 0 0 1.113-4.826Zm-3.13 3.346a3.71 3.71 0 0 1-2.564 1.501l-31.658 3.887a3.727 3.727 0 0 1-2.853-.833 3.728 3.728 0 0 1-1.348-2.65L14.74 21.732a3.756 3.756 0 0 1 3.287-3.96l27.86-3.42a3.752 3.752 0 0 1 4.145 3.044l5.86 32.025a3.72 3.72 0 0 1-.668 2.898Z"/><path d="M47.993 20.182a3.753 3.753 0 0 0-4.15-3.06l-23.165 2.844a3.753 3.753 0 0 0-3.286 3.973l1.025 15.196c.397 3.238 10.561 2.481 16.586 1.742 6.025-.74 16.07-2.465 15.661-5.77l-2.671-14.925ZM34.698 38.395c-7.898.97-12.642.568-13.822.09l-.99-14.711a1.254 1.254 0 0 1 1.097-1.326l23.165-2.845a1.25 1.25 0 0 1 1.383 1.02l2.6 14.516c-1.023.748-5.53 2.286-13.433 3.256ZM22.9 44.881a5.005 5.005 0 0 0-4.353 5.572 5.005 5.005 0 0 0 5.572 4.354 5.005 5.005 0 0 0 4.354-5.572A5.005 5.005 0 0 0 22.9 44.88Zm.915 7.444a2.504 2.504 0 0 1-2.787-2.176 2.504 2.504 0 0 1 2.177-2.786 2.504 2.504 0 0 1 2.786 2.176 2.504 2.504 0 0 1-2.177 2.786ZM47.714 41.834a5.005 5.005 0 0 0-4.353 5.573 5.005 5.005 0 0 0 5.572 4.353 5.005 5.005 0 0 0 4.353-5.572 5.005 5.005 0 0 0-5.572-4.354Zm.914 7.445a2.504 2.504 0 0 1-2.786-2.177 2.504 2.504 0 0 1 2.177-2.786 2.504 2.504 0 0 1 2.786 2.177 2.504 2.504 0 0 1-2.177 2.786ZM39.334 45.382l-7.444.914a1.25 1.25 0 0 0 .305 2.482l7.444-.914a1.25 1.25 0 0 0-.305-2.482ZM41.184 50.193 31.26 51.41a1.25 1.25 0 0 0 .304 2.482l9.926-1.219a1.25 1.25 0 0 0-.305-2.481ZM25.665 57.136a1.25 1.25 0 0 0-1.089 1.393l.305 2.481a1.25 1.25 0 0 1-2.482.305l-.304-2.481a1.25 1.25 0 0 0-2.482.304l.305 2.482a3.754 3.754 0 0 0 4.18 3.265 3.754 3.754 0 0 0 3.264-4.18l-.304-2.48a1.25 1.25 0 0 0-1.393-1.09ZM52.96 53.784a1.25 1.25 0 0 0-1.089 1.393l.305 2.482a1.25 1.25 0 0 1-2.482.304l-.304-2.48a1.25 1.25 0 0 0-2.482.304l.305 2.481a3.755 3.755 0 0 0 4.18 3.265 3.755 3.755 0 0 0 3.264-4.179l-.305-2.481a1.25 1.25 0 0 0-1.392-1.089ZM45.438 4.836c-.433-.45-3.197-2.63-15.005-1.18-11.809 1.45-13.963 4.233-14.275 4.775-.344.6-.163 1.403.436 1.748.255.145.536.198.8.166.357-.044.684-.248.884-.592.017-.022 1.919-2.321 12.46-3.616 10.414-1.278 12.883.433 12.898.432a1.251 1.251 0 0 0 1.802-1.733Z"/><path d="M34.808 4.479a1.25 1.25 0 0 0-1.547.852l-1.844 6.34-3.32-5.703a1.247 1.247 0 0 0-1.708-.453 1.249 1.249 0 0 0-.453 1.708l4.789 8.228a1.25 1.25 0 0 0 2.28-.282l2.655-9.142a1.249 1.249 0 0 0-.852-1.548ZM52.416 18.588a1.25 1.25 0 0 0 .305 2.482 2.504 2.504 0 0 1 2.786 2.176l.457 3.722a1.25 1.25 0 0 1-1.088 1.393l-1.241.153a1.25 1.25 0 0 0 .305 2.481l1.24-.152a3.754 3.754 0 0 0 3.266-4.18l-.457-3.721a5.005 5.005 0 0 0-5.573-4.354ZM13.933 33.389l-1.24.152a1.25 1.25 0 0 1-1.394-1.088l-.457-3.723a2.504 2.504 0 0 1 2.177-2.786 1.25 1.25 0 0 0-.305-2.481 5.005 5.005 0 0 0-4.353 5.572l.457 3.722a3.754 3.754 0 0 0 4.179 3.265l1.24-.152a1.25 1.25 0 0 0-.304-2.481Z"/></g><defs><clipPath id="fa"><path transform="rotate(-7 60.104 -1.709)" d="M0 0h60v60H0z"/></clipPath></defs></svg><view id="hero_vase" viewBox="94.9 0 19.5 32"/><svg viewBox="0 0 39 64" width="19.5" height="32" x="94.9" xmlns="http://www.w3.org/2000/svg"><path d="m34.04 30.035-2.847.35a41.536 41.536 0 0 0 1.849-12.092l.017-3.861a1.172 1.172 0 0 0-2.068-.76l-.345.409a32.573 32.573 0 0 0-3.72 5.45c.419-5.029 1.123-10.146 2.169-13.433l.004-.014a1.172 1.172 0 0 0-1.917-1.21 32.248 32.248 0 0 0-5.446 6.673 26.747 26.747 0 0 1 1.255-8.234 1.172 1.172 0 0 0-1.765-1.333l-2.019 1.342a12.094 12.094 0 0 0-5.39 9.078 18.022 18.022 0 0 0-6.334-3.7L4.168 7.59a1.172 1.172 0 0 0-1.323 1.796l.256.355a51.924 51.924 0 0 1 6.356 11.736 15.344 15.344 0 0 0-2.725-1.223l-2.78-.933a1.172 1.172 0 0 0-1.322 1.797l.214.297A43.35 43.35 0 0 1 8.839 33.13l-3.645.448c-.643.079-1.1.663-1.02 1.306l2.363 19.25c.665 5.42 5.616 9.287 11.035 8.621l11.515-1.413c5.42-.666 9.287-5.616 8.622-11.036l-2.364-19.25a1.172 1.172 0 0 0-1.306-1.02ZM30.7 17.862l-.002.421a39.21 39.21 0 0 1-2.07 12.416l-3.012.37A29.856 29.856 0 0 1 30.7 17.862Zm-4.912-8.027c-1.163 6.24-1.523 13.9-1.616 16.526v.02a32.54 32.54 0 0 0-.95 4.982l-3.703.455c-.916-7.896 1.392-15.827 6.27-21.983Zm-9.595 4.818a9.766 9.766 0 0 1 3.772-8.994 29.115 29.115 0 0 0-.362 9.26l.04.323c.009.073.025.143.046.211-.28.638-.542 1.284-.78 1.938-.18.494-.346.993-.5 1.496a18.026 18.026 0 0 0-2.224-3.897 1.17 1.17 0 0 0 .008-.337Zm-9.456-3.73c5.66 1.898 9.796 6.93 10.575 12.842-.4 2.759-.443 5.57-.12 8.339l-.241.03a15.3 15.3 0 0 0-4.1-8.027 54.241 54.241 0 0 0-6.114-13.184ZM6.5 22.659a13.058 13.058 0 0 1 8.121 9.76l-3.41.419A45.673 45.673 0 0 0 6.5 22.659Zm28.883 27.932c.508 4.136-2.445 7.915-6.581 8.423l-11.515 1.414c-4.137.508-7.916-2.444-8.424-6.581L7.285 40.994l15.993-1.963a1.172 1.172 0 0 0-.285-2.327L6.998 38.668l-.357-2.908 17.789-2.184a.56.56 0 0 1 .013-.002l5.19-.637h.007l3.52-.433 2.222 18.087Z"/></svg><view id="leisure_arrow" viewBox="63.53 35.56 25 8"/><svg viewBox="0 0 25 8" width="25" height="8" x="63.53" y="35.56" xmlns="http://www.w3.org/2000/svg"><path d="M24.354 4.354a.5.5 0 0 0 0-.708L21.172.464a.5.5 0 1 0-.707.708L23.293 4l-2.828 2.828a.5.5 0 1 0 .707.708l3.182-3.182ZM0 4v.5h24v-1H0V4Z"/></svg><view id="logo" viewBox="0 67.56 32 32"/><svg width="32" height="32" viewBox="0 0 43 43" y="67.56" xmlns="http://www.w3.org/2000/svg"><path fill-rule="evenodd" clip-rule="evenodd" d="M25.81 43C37.24 43 43 37.681 43 28.232 43 16.39 39.492 8.838 29.669 1.57 24.757-1.206 16.337-2.429 1.953 16.833-6.467 32.468 14.378 43 25.809 43Zm-2.94-2.15c9.202 0 13.837-4.255 13.837-11.814 0-9.474-2.823-15.516-10.73-21.33-3.953-2.22-10.73-3.199-22.308 12.21-6.777 12.508 10 20.934 19.202 20.934Z"/></svg><view id="odnoklassniki" viewBox="32 67.56 32 32"/><svg viewBox="0 0 37 37" width="32" height="32" x="32" y="67.56" xmlns="http://www.w3.org/2000/svg"><path d="M18.52 14.796a3.7 3.7 0 0 0 3.703-3.735 3.711 3.711 0 0 0-3.722-3.72 3.717 3.717 0 0 0-3.731 3.765 3.71 3.71 0 0 0 3.75 3.69Z"/><path d="M35.032 0H1.968C.881 0 0 .88 0 1.968v33.064C0 36.119.881 37 1.968 37h33.064C36.119 37 37 36.12 37 35.032V1.968C37 .881 36.12 0 35.032 0Zm-16.5 3.45c4.21.011 7.592 3.457 7.571 7.716-.022 4.16-3.459 7.533-7.663 7.519-4.163-.014-7.577-3.465-7.553-7.635.025-4.215 3.44-7.612 7.645-7.6Zm8.53 18.227c-.93.957-2.052 1.648-3.297 2.132-1.178.455-2.468.686-3.745.838.193.21.284.313.404.434 1.733 1.742 3.474 3.477 5.202 5.224.588.594.712 1.332.387 2.025-.354.757-1.147 1.255-1.926 1.201-.493-.035-.877-.28-1.218-.623-1.308-1.316-2.641-2.608-3.922-3.948-.373-.39-.552-.318-.882.022a261.33 261.33 0 0 1-3.998 4.015c-.604.596-1.322.703-2.024.363-.745-.361-1.218-1.121-1.181-1.886.025-.516.28-.91.634-1.265 1.715-1.713 3.425-3.43 5.137-5.145.113-.114.219-.235.384-.412-2.334-.243-4.438-.817-6.239-2.227-.223-.175-.454-.344-.659-.54-.788-.757-.867-1.624-.243-2.518.533-.764 1.43-.97 2.36-.53.181.084.353.19.517.305 3.357 2.306 7.969 2.37 11.339.104.333-.254.69-.465 1.104-.57.805-.207 1.554.088 1.986.792.495.802.488 1.586-.12 2.21Z"/></svg><view id="route" viewBox="64 67.56 32 26.81"/><svg width="32" height="26.81" fill="none" viewBox="0 0 1417 1187" x="64" y="67.56" xmlns="http://www.w3.org/2000/svg"><path d="m230.531 1026.41-20.569-23.75a211.326 211.326 0 0 1-31.026-47.451c-30.532-64.101-29.268-140.923 11.962-198.726 25.45-35.678 53.208-66.388 98.77-105.848 96.047-83.184 227.537-113.332 349.185-76.641C960.554 671.024 1318.21 854.276 1360 695.5 1462 308 580.643 158.606 437.5 153" stroke="url(#ka)" stroke-width="3" stroke-dasharray="10 10"/><path d="M250.5 1017.91c13.228 0 24 10.94 24 24.5s-10.772 24.5-24 24.5-24-10.94-24-24.5 10.772-24.5 24-24.5Z" stroke="#87CE66" stroke-width="3"/><path d="M255.377 992.649c3.293.326 6.491.977 9.562 1.921l-.293.956a47.94 47.94 0 0 1 8.806 3.706l.476-.877a49.12 49.12 0 0 1 8.068 5.485h.001l-.641.76a49.687 49.687 0 0 1 6.709 6.81l.776-.62a49.9 49.9 0 0 1 5.368 8.14l-.881.46a48.975 48.975 0 0 1 3.614 8.85l.957-.28a49.952 49.952 0 0 1 1.867 9.57l-.995.1a50.005 50.005 0 0 1 0 9.56l.995.1a50.255 50.255 0 0 1-1.867 9.57l-.957-.28a48.585 48.585 0 0 1-3.614 8.84l.881.47a49.9 49.9 0 0 1-5.368 8.14l-.776-.62a49.055 49.055 0 0 1-6.709 6.8l.64.77a49.597 49.597 0 0 1-8.068 5.48l-.476-.87a47.712 47.712 0 0 1-8.806 3.7l.293.96a49.522 49.522 0 0 1-9.562 1.92l-.098-1c-1.572.16-3.166.24-4.779.24s-3.207-.08-4.779-.24l-.099 1a49.522 49.522 0 0 1-9.562-1.92l.294-.96a47.712 47.712 0 0 1-8.806-3.7l-.477.87a49.597 49.597 0 0 1-8.068-5.48l.641-.77a49.055 49.055 0 0 1-6.709-6.8l-.777.62a49.9 49.9 0 0 1-5.368-8.14l.882-.47a48.585 48.585 0 0 1-3.614-8.84l-.958.28a50.255 50.255 0 0 1-1.867-9.57l.996-.1a50.005 50.005 0 0 1 0-9.56l-.996-.1c.316-3.3.948-6.5 1.867-9.57l.958.28a48.975 48.975 0 0 1 3.614-8.85l-.882-.46a49.9 49.9 0 0 1 5.368-8.14l.777.62a49.687 49.687 0 0 1 6.709-6.81l-.641-.76a49.12 49.12 0 0 1 8.068-5.485l.477.877a47.94 47.94 0 0 1 8.806-3.706l-.294-.956a48.928 48.928 0 0 1 9.562-1.921l.099.995a48.381 48.381 0 0 1 4.779-.235c1.613 0 3.207.079 4.779.235l.098-.995Z" stroke="#87CE66" stroke-opacity=".7" stroke-width="2" stroke-dasharray="10 10"/><circle cx="250.5" cy="1042.91" r="75.5" stroke="#87CE66" stroke-opacity=".3" stroke-width="2" stroke-dasharray="10 10"/><defs><linearGradient id="ka" x1="351.71" y1="1101.97" x2="659.489" y2="-165.14" gradientUnits="userSpaceOnUse"><stop stop-color="#87CE66"/><stop offset="1" stop-color="#63AB41"/></linearGradient></defs></svg><view id="slider_arrow_left" viewBox="114.4 0 32 32"/><svg viewBox="0 0 36 36" width="32" height="32" x="114.4" xmlns="http://www.w3.org/2000/svg"><g clip-path="url(#la)"><path d="M7.74 18c0-.645.246-1.29.738-1.782L23.957.738a2.52 2.52 0 1 1 3.565 3.565L13.826 18l13.696 13.696a2.521 2.521 0 0 1-3.566 3.565L8.477 19.78A2.514 2.514 0 0 1 7.74 18Z"/></g><defs><clipPath id="la"><path transform="rotate(90 18 18)" d="M0 0h36v36H0z"/></clipPath></defs></svg><view id="slider_arrow_right" viewBox="114.4 32 32 32"/><svg viewBox="0 0 36 36" width="32" height="32" x="114.4" y="32" xmlns="http://www.w3.org/2000/svg"><g clip-path="url(#ma)"><path d="M28.26 18c0 .645-.246 1.29-.738 1.782l-15.479 15.48a2.52 2.52 0 1 1-3.565-3.566L22.174 18 8.478 4.304A2.521 2.521 0 0 1 12.044.74l15.479 15.48c.492.491.737 1.136.737 1.781Z"/></g><defs><clipPath id="ma"><path transform="rotate(90 18 18)" d="M0 0h36v36H0z"/></clipPath></defs></svg><view id="slider_indicator" viewBox="94.9 32 8 8"/><svg viewBox="0 0 8 8" width="8" height="8" x="94.9" y="32" xmlns="http://www.w3.org/2000/svg"><circle cx="4" cy="4" r="3.5"/></svg><view id="slider_indicator_active" viewBox="114.4 64 32 6.56"/><svg viewBox="0 0 39 8" width="32" height="6.56" x="114.4" y="64" xmlns="http://www.w3.org/2000/svg"><path d="M0 4A3.61 3.61 0 0 1 3.98.408l5.317.546a100 100 0 0 0 20.406 0L35.02.408a3.61 3.61 0 1 1 0 7.184l-5.318-.546a100 100 0 0 0-20.406 0l-5.318.546A3.61 3.61 0 0 1 0 4Z"/></svg><view id="target" viewBox="0 99.56 32 32"/><svg width="32" height="32" fill="none" viewBox="0 0 344 344" y="99.56" xmlns="http://www.w3.org/2000/svg"><circle cx="172" cy="172" r="57.5" stroke="#87CE66" stroke-width="3"/><circle cx="172" cy="172" r="110" stroke="#87CE66" stroke-opacity=".7" stroke-width="2" stroke-dasharray="10 10"/><circle cx="172" cy="172" r="171" stroke="#87CE66" stroke-opacity=".3" stroke-width="2" stroke-dasharray="10 10"/></svg><view id="twitter" viewBox="114.4 70.56 32 28"/><svg viewBox="0 0 40 35" width="32" height="28" x="114.4" y="70.56" xmlns="http://www.w3.org/2000/svg"><path d="M40 4.787a16.773 16.773 0 0 1-4.725 1.328 8.325 8.325 0 0 0 3.608-4.646 16.148 16.148 0 0 1-5.2 2.035c-1.505-1.643-3.65-2.66-5.99-2.66-4.54 0-8.196 3.777-8.196 8.407 0 .667.055 1.307.19 1.917-6.817-.34-12.85-3.69-16.902-8.792a8.624 8.624 0 0 0-1.123 4.249c0 2.91 1.463 5.491 3.643 6.985-1.317-.025-2.61-.418-3.705-1.035v.092c0 4.085 2.842 7.478 6.57 8.26a7.999 7.999 0 0 1-2.15.276c-.525 0-1.055-.03-1.552-.144 1.062 3.329 4.077 5.776 7.662 5.856A16.223 16.223 0 0 1 1.962 30.5 15 15 0 0 1 0 30.384a22.68 22.68 0 0 0 12.58 3.772c15.09 0 23.34-12.812 23.34-23.918 0-.372-.013-.73-.03-1.087C37.517 7.968 38.885 6.49 40 4.787Z"/></svg><view id="vk" viewBox="32 99.56 32 18.94"/><svg viewBox="0 0 49 29" width="32" height="18.94" x="32" y="99.56" xmlns="http://www.w3.org/2000/svg"><path d="M40.66 16.599c-.792-1-.566-1.446 0-2.34.01-.01 6.55-9.047 7.223-12.111l.004-.002c.335-1.117 0-1.938-1.619-1.938h-5.357c-1.364 0-1.993.705-2.33 1.493 0 0-2.727 6.529-6.586 10.761-1.245 1.223-1.821 1.615-2.501 1.615-.335 0-.855-.392-.855-1.508V2.146c0-1.34-.382-1.938-1.511-1.938h-8.424c-.856 0-1.364.625-1.364 1.207 0 1.27 1.93 1.562 2.13 5.135v7.752c0 1.698-.309 2.01-.993 2.01-1.821 0-6.241-6.555-8.86-14.058C9.086.798 8.57.21 7.196.21h-5.36C.308.21 0 .915 0 1.703c0 1.392 1.821 8.316 8.469 17.462 4.43 6.244 10.67 9.627 16.345 9.627 3.412 0 3.828-.752 3.828-2.044 0-5.966-.308-6.53 1.401-6.53.792 0 2.156.393 5.341 3.404 3.64 3.571 4.239 5.17 6.276 5.17h5.358c1.527 0 2.3-.752 1.855-2.234-1.018-3.118-7.903-9.53-8.213-9.96Z"/></svg></svg>